<?xml version="1.0" standalone="no"?>
<!DOCTYPE svg PUBLIC "-//W3C//DTD SVG 20010904//EN"
 "http://www.w3.org/TR/2001/REC-SVG-20010904/DTD/svg10.dtd">
<svg version="1.0" xmlns="http://www.w3.org/2000/svg"
 width="600.000000pt" height="600.000000pt" viewBox="0 0 600.000000 600.000000"
 preserveAspectRatio="xMidYMid meet">
<metadata>
Created by potrace 1.11, written by Peter Selinger 2001-2013
</metadata>
<g transform="translate(0.000000,600.000000) scale(0.100000,-0.100000)"
fill="#000000" stroke="none">
<path d="M2739 5926 c-2 -2 -42 -7 -89 -11 -169 -14 -428 -75 -630 -148 -174
-63 -482 -210 -484 -231 -1 -6 65 -11 154 -12 85 -1 173 -4 195 -7 124 -18
350 -85 555 -164 151 -58 184 -73 383 -170 92 -46 171 -83 176 -83 10 0 235
101 280 125 155 84 564 231 733 264 29 6 62 12 73 15 62 13 166 20 288 20 75
-1 137 0 137 2 0 5 -155 90 -222 122 -247 117 -610 229 -858 263 -78 11 -682
24 -691 15z"/>
<path d="M4935 5105 c-130 -34 -309 -120 -442 -211 -73 -51 -258 -193 -296
-228 -13 -11 -41 -36 -63 -55 -37 -32 -163 -147 -266 -242 l-48 -44 78 -96
c213 -265 357 -463 556 -764 491 -740 828 -1421 890 -1800 3 -16 8 -50 12 -75
10 -61 11 -242 1 -310 -7 -51 -7 -54 8 -35 8 11 21 27 28 35 6 8 35 51 63 95
46 71 78 127 166 285 81 145 189 443 247 680 37 153 45 203 57 355 11 139 4
584 -11 695 -2 19 -7 57 -10 84 -3 27 -13 81 -21 120 -121 540 -377 1039 -713
1389 -126 131 -151 144 -236 122z"/>
<path d="M974 5094 c-29 -14 -163 -145 -224 -219 -220 -266 -409 -611 -525
-960 -28 -84 -82 -294 -90 -350 -3 -22 -12 -80 -20 -130 -8 -49 -16 -108 -20
-130 -3 -22 -8 -60 -12 -85 -15 -98 -6 -500 12 -530 2 -3 6 -30 9 -60 3 -30 8
-66 11 -80 3 -14 12 -63 21 -110 48 -260 148 -558 260 -776 79 -153 222 -382
267 -429 20 -20 20 -20 13 5 -25 86 -27 115 -22 220 3 63 8 131 12 150 28 164
103 403 179 575 276 628 746 1381 1253 2009 l104 130 -65 61 c-37 33 -79 72
-94 85 -15 13 -82 72 -148 130 -222 195 -410 332 -550 403 -89 45 -140 68
-157 71 -7 1 -37 10 -67 19 -67 21 -107 21 -147 1z"/>
<path d="M2963 3528 c-221 -141 -824 -724 -1203 -1164 -22 -24 -186 -227 -223
-274 -7 -8 -42 -55 -78 -105 -309 -424 -464 -763 -453 -992 8 -165 105 -271
440 -480 117 -74 359 -203 379 -203 3 0 24 -9 48 -19 196 -89 488 -171 742
-206 179 -25 599 -25 745 0 14 2 45 6 70 9 25 3 54 7 65 10 11 2 40 7 65 11
82 13 294 65 370 92 398 138 893 430 1030 608 78 102 82 233 13 435 -27 79
-109 265 -128 290 -7 8 -22 35 -34 59 -43 86 -175 285 -294 444 -66 89 -123
164 -126 167 -4 3 -26 30 -51 60 -25 30 -57 68 -72 85 -14 16 -36 41 -48 55
-123 143 -653 682 -826 841 -214 196 -323 286 -366 302 -9 3 -36 -7 -65 -25z"/>
</g>
</svg>
